<?xml version="1.0" standalone="no"?>
<!DOCTYPE svg PUBLIC "-//W3C//DTD SVG 20010904//EN"
 "http://www.w3.org/TR/2001/REC-SVG-20010904/DTD/svg10.dtd">
<svg version="1.0" xmlns="http://www.w3.org/2000/svg"
 width="626.000000pt" height="352.000000pt" viewBox="0 0 626.000000 352.000000"
 preserveAspectRatio="xMidYMid meet">

<g transform="translate(0.000000,352.000000) scale(0.100000,-0.100000)"
fill="#000000" stroke="none">
<path d="M3073 2648 c-107 -114 -138 -205 -130 -377 6 -126 23 -196 86 -364
52 -137 91 -297 73 -297 -4 0 -20 20 -35 44 -16 25 -56 71 -90 102 -157 146
-300 200 -552 211 -165 7 -293 -9 -498 -62 -174 -44 -224 -49 -325 -31 -146
26 -267 99 -315 190 -31 61 -29 149 6 209 30 51 64 78 120 97 33 10 45 10 82
-4 23 -9 51 -26 61 -37 21 -23 24 -80 5 -103 -20 -24 -39 -20 -34 7 7 33 -20
53 -52 39 -76 -35 -9 -145 76 -127 95 21 129 146 62 225 -105 125 -329 75
-401 -89 -10 -23 -16 -66 -16 -116 0 -67 4 -88 26 -130 34 -66 105 -130 181
-165 64 -29 186 -60 233 -60 48 0 14 -17 -121 -58 -298 -92 -495 -132 -723
-146 -86 -5 -92 1 -92 90 0 40 6 67 22 93 l21 36 -31 -29 c-36 -33 -52 -79
-52 -147 l0 -45 -63 7 c-165 20 -277 62 -342 129 -34 35 -40 47 -40 85 0 106
135 126 160 24 10 -39 -32 -84 -68 -75 -36 9 -34 22 3 30 36 7 47 28 32 62
-24 52 -105 17 -105 -46 0 -73 93 -107 146 -54 41 41 40 104 -4 150 -92 98
-245 -1 -210 -134 32 -118 172 -192 404 -212 83 -7 104 -12 112 -27 6 -10 35
-43 66 -74 137 -139 382 -153 688 -39 47 17 179 76 295 132 254 122 363 168
326 138 -139 -113 -170 -161 -170 -258 0 -50 5 -66 30 -100 16 -23 44 -49 62
-59 45 -23 125 -22 167 2 56 33 76 68 76 135 0 51 -4 63 -30 90 -56 59 -147
58 -189 -1 -26 -38 -17 -108 18 -131 22 -15 73 -8 91 12 23 25 14 46 -25 55
-41 9 -37 39 6 43 68 7 92 -79 36 -130 -46 -41 -93 -39 -138 6 -29 29 -34 41
-34 82 0 90 78 178 214 243 112 53 177 66 326 65 119 0 145 -4 215 -27 215
-71 380 -244 379 -396 0 -109 -69 -207 -185 -265 -122 -61 -228 -58 -307 10
-48 41 -66 88 -59 157 3 41 11 56 36 79 36 32 84 37 119 12 30 -21 28 -30 -8
-37 -61 -13 -48 -97 15 -97 43 0 75 38 75 89 0 48 -18 81 -59 108 -84 57 -214
-2 -246 -111 -19 -62 -19 -80 0 -143 19 -63 80 -134 139 -162 157 -73 377 0
494 164 l21 30 33 -40 c111 -135 264 -202 406 -175 151 28 251 169 221 311
-27 126 -177 190 -268 113 -55 -46 -65 -136 -18 -169 30 -21 71 -19 92 5 17
18 17 21 1 45 -9 14 -25 25 -36 25 -27 0 -25 25 2 44 35 25 73 19 112 -15 42
-36 54 -83 36 -142 -13 -45 -59 -100 -100 -122 -138 -70 -382 46 -436 208 -34
103 5 217 112 323 71 71 184 132 299 161 105 25 287 23 388 -5 237 -67 376
-219 312 -342 -16 -30 -61 -60 -90 -60 -57 0 -115 63 -100 110 10 32 49 54 74
40 32 -17 26 -40 -9 -40 -25 0 -30 -4 -30 -25 0 -35 43 -61 78 -49 40 14 64
69 51 116 -14 52 -51 78 -110 78 -42 0 -55 -5 -87 -34 -35 -33 -37 -37 -37
-99 0 -51 5 -72 21 -93 65 -88 184 -100 265 -27 103 93 65 258 -86 371 -29 22
-29 23 -5 17 14 -4 108 -46 210 -95 362 -171 533 -228 715 -237 118 -6 198 8
282 48 42 21 118 87 143 126 13 20 29 24 115 34 268 28 405 113 405 251 0 148
-199 188 -241 49 -28 -94 80 -173 146 -106 31 30 34 84 7 108 -23 21 -75 22
-92 2 -21 -25 -4 -65 30 -72 34 -6 39 -19 10 -28 -45 -14 -85 37 -68 88 27 76
126 74 158 -3 26 -62 -28 -138 -133 -185 -60 -28 -218 -65 -277 -65 l-35 0 0
68 c-1 57 -5 73 -29 110 -35 52 -51 55 -25 5 12 -24 19 -58 19 -94 0 -90 1
-89 -106 -89 -227 0 -496 60 -834 187 -12 5 -10 7 5 10 11 2 56 11 100 19 151
29 256 98 312 206 39 75 39 180 1 253 -51 96 -139 154 -234 155 -66 0 -113
-20 -152 -64 -56 -64 -55 -135 3 -193 35 -35 70 -42 119 -23 59 22 57 115 -2
108 -21 -2 -28 -9 -30 -30 -4 -30 -13 -34 -43 -18 -21 12 -26 68 -9 101 42 77
195 57 261 -34 75 -104 57 -213 -50 -309 -63 -56 -151 -93 -261 -108 -101 -14
-172 -7 -305 30 -177 50 -247 61 -405 67 -174 6 -277 -8 -402 -54 -133 -49
-267 -157 -347 -277 -17 -26 -27 -34 -29 -24 -6 30 27 157 68 264 78 200 92
258 97 390 6 129 -6 193 -49 278 -20 39 -124 156 -138 156 -4 0 -29 -24 -57
-52z m95 -192 c55 -138 53 -261 -10 -478 -10 -38 -23 -68 -28 -68 -19 0 -63
178 -75 305 -4 41 -2 97 5 135 14 79 55 173 72 168 7 -3 23 -31 36 -62z m-663
-566 c39 -6 97 -17 130 -25 60 -16 232 -92 223 -100 -2 -2 -44 9 -93 25 -184
59 -364 64 -560 16 -138 -34 -210 -63 -424 -170 -271 -136 -484 -213 -637
-231 -137 -15 -299 33 -377 112 l-37 39 152 12 c269 20 454 61 843 187 406
132 585 162 780 135z m1640 -21 c124 -25 179 -41 480 -139 330 -107 532 -150
788 -166 59 -4 107 -10 107 -14 0 -16 -76 -74 -128 -97 -133 -59 -305 -54
-517 16 -130 42 -215 78 -455 194 -167 80 -262 118 -353 141 -206 53 -432 44
-605 -25 -80 -33 -74 -15 10 25 194 93 422 115 673 65z"/>
<path d="M2488 2335 c-9 -41 8 -121 33 -161 31 -51 112 -119 197 -165 154 -84
244 -157 311 -249 17 -24 31 -39 31 -33 0 24 -43 133 -81 202 -67 126 -134
184 -274 236 -130 48 -183 93 -204 173 l-8 27 -5 -30z"/>
<path d="M3753 2319 c-20 -56 -79 -104 -182 -148 -168 -73 -222 -119 -294
-251 -37 -66 -91 -200 -84 -206 2 -2 21 21 42 52 53 76 108 122 248 207 208
124 292 224 285 334 l-3 47 -12 -35z"/>
<path d="M646 2120 c11 -130 60 -216 148 -262 36 -20 57 -22 186 -23 101 0
152 -4 168 -13 50 -28 30 -2 -30 41 -79 56 -102 67 -210 105 -151 54 -209 95
-249 179 l-19 38 6 -65z"/>
<path d="M5586 2130 c-30 -69 -89 -110 -236 -164 -89 -33 -152 -64 -192 -93
-33 -25 -58 -46 -56 -48 1 -2 24 1 50 5 25 5 88 8 140 7 54 -1 113 4 141 12
99 29 173 130 184 252 7 69 -7 82 -31 29z"/>
<path d="M1650 2062 c-61 -62 -26 -152 60 -152 117 0 124 158 7 177 -31 5 -40
1 -67 -25z"/>
<path d="M4489 2061 c-21 -21 -29 -39 -29 -64 0 -50 8 -66 42 -83 64 -33 138
12 138 83 0 46 -45 93 -90 93 -22 0 -41 -9 -61 -29z"/>
<path d="M970 1793 c-29 -9 -68 -13 -108 -10 l-63 5 22 -24 c13 -14 47 -36 76
-50 72 -36 140 -31 211 15 28 17 67 35 86 38 44 7 40 13 -22 30 -62 16 -146
15 -202 -4z"/>
<path d="M5088 1793 c-38 -15 -50 -33 -24 -33 8 0 50 -14 93 -31 126 -50 224
-38 274 32 l20 29 -58 -6 c-39 -4 -78 -1 -119 10 -77 20 -138 20 -186 -1z"/>
<path d="M3090 1048 c-17 -35 -30 -76 -30 -93 0 -35 30 -104 53 -123 21 -18
33 -10 58 40 16 31 20 54 17 93 -4 52 -42 145 -59 145 -6 0 -23 -28 -39 -62z"/>
</g>
</svg>
